<svg xmlns="http://www.w3.org/2000/svg" viewBox="0 0 960 225.11"><defs><style>.cls-1{fill:#fff;}.cls-2{fill:#f91c05;}</style></defs><g id="Layer_1" data-name="Layer 1"><path class="cls-1" d="M357.31,24.12H327.73V97.75H307.19V24.12H277.6V7.91h79.71Z"/><path class="cls-1" d="M445.8,81.94a72,72,0,0,0,.41,8.38,69.31,69.31,0,0,0,1.35,7.43H427q-1.75-5.27-1.75-15.54V77.48q0-7.29-4-10.87t-11-3.58H391.76V97.75H371.09V7.91h47.42q14.46,0,22.09,6.62t7.64,18A23.29,23.29,0,0,1,443,48a23.58,23.58,0,0,1-13.51,8q7.83,1.91,12.09,6.35t4.25,13.51ZM423.71,45.13q3-3.18,3-9.66,0-11.62-12.83-11.62H391.76V48.3h22.16Q420.67,48.3,423.71,45.13Z"/><path class="cls-1" d="M527.94,79.38H487.68L481.2,97.75H460.53L492.14,7.91h31.35L555.1,97.75H534.43ZM522.4,63.57,507.81,22.09,493.22,63.57Z"/><path class="cls-1" d="M656.15,7.91V97.75h-34L594,36.41a109.51,109.51,0,0,1-5.14-13.78V97.75H569.15V7.91h34l28.38,62.28q2.7,6.34,4.86,13V7.91Z"/><path class="cls-1" d="M698.51,80.32q5.06,4.46,15.2,4.46,9.72,0,13.91-3.11a10.29,10.29,0,0,0,4.19-8.78,10.11,10.11,0,0,0-3-7.77q-3-2.76-9.05-3.58L699.93,59q-12-1.48-18.45-8t-6.41-17.56q0-12.69,9.52-20.26t27.9-7.57q19.05,0,28.64,8a28.39,28.39,0,0,1,10.4,20.94H731.4a14.45,14.45,0,0,0-5.54-10.13q-4.73-3.64-13.37-3.65-8.1,0-12.43,3a9.76,9.76,0,0,0-4.32,8.45,9.37,9.37,0,0,0,2.56,6.82q2.57,2.64,8,3.17l18.77,2.3q27.44,3.1,27.43,26.34,0,29.19-39,29.19-20.55,0-30.2-9.06A31.75,31.75,0,0,1,673,68.16h20Q693.45,75.87,698.51,80.32Z"/><path class="cls-1" d="M840.43,16q7,8,7,20.73,0,13.38-7,21.55T819,66.41h-27V97.75H771.26V7.91H819Q833.41,7.91,840.43,16ZM822.87,46.82q3.24-3.65,3.24-10,0-13-13.51-13H791.93V50.46h20.53Q819.63,50.46,822.87,46.82Z"/><path class="cls-1" d="M880.22,93.7a37.89,37.89,0,0,1-15.47-17,56.77,56.77,0,0,1-4.87-23.78,56.43,56.43,0,0,1,4.87-23.65A38.61,38.61,0,0,1,880.22,12.1q10.6-6.49,27.09-6.49t27,6.49a38.66,38.66,0,0,1,15.47,17.15,56.43,56.43,0,0,1,4.86,23.65,56.28,56.28,0,0,1-4.86,23.71,38.49,38.49,0,0,1-15.4,17q-10.55,6.42-27,6.42T880.22,93.7Zm7-18q5.88,7.42,20.07,7.43t20.06-7.43q5.88-7.42,5.87-22.83t-5.81-23q-5.8-7.5-20.12-7.5t-20.14,7.5q-5.8,7.5-5.8,23Q881.37,68.29,887.24,75.73Z"/><path class="cls-1" d="M298.14,213a37.46,37.46,0,0,1-14.25-16.89,59.77,59.77,0,0,1-4.67-24.18,54.87,54.87,0,0,1,5.14-24.25,38,38,0,0,1,16-16.75q10.88-6.15,27.22-6.15,21.48,0,32.15,8.78t12,23.92H351a17.08,17.08,0,0,0-6.75-12.3q-5.82-4.32-16.76-4.32-13.5,0-20.12,7.63T300.7,172q0,15.53,6.22,23.23t19.59,7.7q12.42,0,18.3-5.54t7.23-15H320V169.06h51.61v47.83H354.07V199.6a27.63,27.63,0,0,1-10.81,14.18q-7.83,5.4-21.21,5.41Q307.73,219.19,298.14,213Z"/><path class="cls-1" d="M465.93,201.08a72,72,0,0,0,.41,8.38,69.31,69.31,0,0,0,1.35,7.43H447.15q-1.75-5.26-1.75-15.54v-4.73q0-7.29-4-10.87t-11-3.58H411.89v34.72H391.22V127.05h47.42q14.46,0,22.09,6.62t7.63,18a23.19,23.19,0,0,1-5.27,15.46,23.48,23.48,0,0,1-13.51,8q7.85,1.91,12.1,6.35T465.93,195Zm-22.09-36.81q3-3.18,3-9.66,0-11.62-12.83-11.62H411.89v24.45h22.16Q440.8,167.44,443.84,164.27Z"/><path class="cls-1" d="M502.61,212.84a37.87,37.87,0,0,1-15.47-17,60.27,60.27,0,0,1,0-47.42,38.61,38.61,0,0,1,15.47-17.15q10.61-6.5,27.09-6.49t26.95,6.49a38.61,38.61,0,0,1,15.47,17.15,60.12,60.12,0,0,1,0,47.36,38.43,38.43,0,0,1-15.4,17q-10.54,6.4-27,6.42T502.61,212.84Zm7-18q5.88,7.42,20.07,7.43t20.06-7.43q5.88-7.43,5.88-22.83t-5.81-23q-5.82-7.5-20.13-7.5T509.57,149q-5.82,7.5-5.81,23T509.63,194.87Z"/><path class="cls-1" d="M614.67,127.05v53.36q0,8.52,2.17,13.31a12.62,12.62,0,0,0,6.41,6.69,28.17,28.17,0,0,0,11.28,1.89q7,0,11.29-1.89a12.62,12.62,0,0,0,6.41-6.69q2.16-4.8,2.16-13.31V127.05H674.8v56.2q0,17.56-10.14,26.68t-30.13,9.12q-20.13,0-30.26-9.05t-10.13-26.75v-56.2Z"/><path class="cls-1" d="M763.29,135.09q7,8,7,20.73,0,13.38-7,21.55t-21.55,8.18h-27v31.34H694.11V127.05H741.8Q756.26,127.05,763.29,135.09ZM745.72,166Q749,162.3,749,156q0-13-13.51-13H714.78V169.6h20.54Q742.48,169.6,745.72,166Z"/><rect class="cls-2" x="5.41" y="6.94" width="234.02" height="18"/><polygon class="cls-2" points="113.42 42.94 5.41 42.94 5.41 60.94 95.42 60.94 95.42 213.96 113.42 213.96 113.42 42.94 113.42 42.94 113.42 42.94"/><polygon class="cls-2" points="131.42 42.94 131.42 213.96 149.42 213.96 149.42 60.94 239.43 60.94 239.43 42.94 131.42 42.94 131.42 42.94"/><polygon class="cls-2" points="77.42 78.95 5.41 78.95 5.41 96.95 59.41 96.95 59.41 213.96 77.42 213.96 77.42 78.95 77.42 78.95 77.42 78.95"/><polygon class="cls-2" points="167.42 78.95 167.42 78.95 167.42 213.96 185.43 213.96 185.43 96.95 239.43 96.95 239.43 78.95 167.42 78.95"/><rect class="cls-2" x="5.41" y="114.95" width="36" height="18"/><rect class="cls-2" x="203.43" y="114.95" width="36" height="18"/></g></svg>